<?xml version="1.0" encoding="UTF-8" standalone="no"?>
<!--Created with ndjsontosvg(https:https://github.com/thompson318/ndjsontosvg) 
	from the simplified Google quickdraw data set. key_id = 4643387502231552-->
<svg width="256" height="256"
	xmlns="http://www.w3.org/2000/svg"
	xmlns:ndjsontosvg="https://github.com/thompson318/ndjsontosvg"
	xmlns:quickdraw="https://quickdraw.withgoogle.com/data"
	xmlns:scikit-surgery="https://doi.org/10.1007/s11548-020-02180-5">

	<rect width="100%" height="100%" fill="white" />
	<path d = "M 91.00 118.00 L 92.00 113.00 L 82.00 109.00 L 50.00 109.00 L 25.00 119.00 L 8.00 133.00 L 2.00 145.00 L 0.00 169.00 L 4.00 180.00 L 20.00 196.00 L 44.00 206.00 L 73.00 207.00 L 86.00 206.00 L 97.00 199.00 L 106.00 188.00 L 112.00 172.00 L 115.00 153.00 L 111.00 118.00 L 98.00 99.00 L 81.00 99.00 L 69.00 104.00" stroke="black" fill="transparent"/>
	<path d = "M 52.00 137.00 L 36.00 155.00 L 37.00 173.00 L 51.00 180.00 L 69.00 180.00 L 75.00 178.00 L 79.00 171.00 L 80.00 156.00 L 76.00 150.00 L 65.00 141.00 L 51.00 139.00" stroke="black" fill="transparent"/>
	<path d = "M 117.00 141.00 L 104.00 62.00 L 93.00 26.00 L 76.00 7.00 L 51.00 0.00 L 34.00 2.00 L 26.00 6.00 L 11.00 24.00 L 0.00 136.00" stroke="black" fill="transparent"/>
	<path d = "M 117.00 159.00 L 115.00 231.00 L 111.00 255.00" stroke="black" fill="transparent"/>
	<path d = "M 4.00 177.00 L 6.00 181.00 L 10.00 234.00 L 15.00 253.00" stroke="black" fill="transparent"/>
	<path d = "M 58.00 153.00 L 50.00 172.00 L 54.00 176.00 L 60.00 172.00 L 64.00 157.00 L 57.00 152.00 L 52.00 152.00 L 45.00 158.00 L 46.00 172.00 L 58.00 175.00 L 60.00 167.00 L 54.00 158.00 L 45.00 157.00 L 43.00 163.00 L 50.00 169.00 L 69.00 170.00 L 72.00 166.00 L 72.00 158.00 L 59.00 153.00 L 49.00 156.00 L 46.00 163.00 L 48.00 168.00 L 62.00 175.00 L 75.00 176.00 L 79.00 173.00 L 79.00 162.00 L 73.00 156.00 L 67.00 153.00 L 54.00 153.00 L 47.00 163.00 L 52.00 173.00 L 69.00 178.00 L 72.00 171.00 L 67.00 164.00" stroke="black" fill="transparent"/>
</svg>