<?xml version="1.0" encoding="UTF-8" standalone="no"?>
<!--Created with ndjsontosvg(https:https://github.com/thompson318/ndjsontosvg) 
	from the simplified Google quickdraw data set. key_id = 6596846082326528-->
<svg width="256" height="256"
	xmlns="http://www.w3.org/2000/svg"
	xmlns:ndjsontosvg="https://github.com/thompson318/ndjsontosvg"
	xmlns:quickdraw="https://quickdraw.withgoogle.com/data"
	xmlns:scikit-surgery="https://doi.org/10.1007/s11548-020-02180-5">

	<rect width="100%" height="100%" fill="white" />
	<path d = "M 52.00 119.00 L 33.00 130.00 L 30.00 137.00 L 24.00 157.00 L 22.00 182.00 L 30.00 189.00 L 37.00 187.00 L 53.00 174.00 L 63.00 162.00 L 70.00 145.00 L 71.00 125.00 L 69.00 121.00 L 60.00 118.00 L 44.00 119.00" stroke="black" fill="transparent"/>
	<path d = "M 69.00 107.00 L 84.00 115.00 L 93.00 130.00 L 92.00 139.00 L 80.00 170.00 L 74.00 179.00 L 58.00 193.00 L 29.00 209.00 L 18.00 210.00 L 11.00 204.00 L 4.00 179.00 L 2.00 159.00 L 9.00 144.00 L 59.00 106.00 L 66.00 105.00 L 79.00 113.00" stroke="black" fill="transparent"/>
	<path d = "M 74.00 123.00 L 90.00 120.00 L 109.00 110.00 L 137.00 71.00 L 140.00 44.00 L 128.00 14.00 L 111.00 2.00 L 98.00 0.00 L 87.00 1.00 L 73.00 14.00 L 48.00 53.00 L 42.00 74.00 L 42.00 93.00 L 50.00 107.00 L 62.00 111.00" stroke="black" fill="transparent"/>
	<path d = "M 83.00 115.00 L 105.00 154.00 L 111.00 179.00 L 110.00 206.00 L 85.00 225.00 L 91.00 237.00 L 98.00 240.00 L 23.00 255.00 L 31.00 247.00 L 30.00 231.00 L 17.00 223.00 L 0.00 198.00 L 6.00 176.00" stroke="black" fill="transparent"/>
</svg>