<?xml version="1.0" encoding="UTF-8" standalone="no"?>
<!--Created with ndjsontosvg(https:https://github.com/thompson318/ndjsontosvg) 
	from the simplified Google quickdraw data set. key_id = 5482077925408768-->
<svg width="256" height="256"
	xmlns="http://www.w3.org/2000/svg"
	xmlns:ndjsontosvg="https://github.com/thompson318/ndjsontosvg"
	xmlns:quickdraw="https://quickdraw.withgoogle.com/data"
	xmlns:scikit-surgery="https://doi.org/10.1007/s11548-020-02180-5">

	<rect width="100%" height="100%" fill="white" />
	<path d = "M 100.00 0.00 L 79.00 1.00 L 58.00 8.00 L 36.00 25.00 L 22.00 46.00 L 11.00 96.00 L 9.00 151.00 L 2.00 190.00 L 0.00 243.00 L 3.00 246.00 L 48.00 250.00 L 71.00 250.00 L 77.00 245.00 L 85.00 226.00 L 104.00 151.00 L 115.00 73.00" stroke="black" fill="transparent"/>
	<path d = "M 124.00 124.00 L 217.00 138.00 L 236.00 145.00 L 247.00 153.00 L 253.00 161.00 L 253.00 171.00 L 249.00 179.00 L 239.00 184.00 L 214.00 186.00 L 131.00 172.00 L 81.00 169.00" stroke="black" fill="transparent"/>
	<path d = "M 197.00 190.00 L 174.00 226.00 L 141.00 250.00 L 124.00 255.00 L 86.00 254.00 L 84.00 246.00" stroke="black" fill="transparent"/>
</svg>