<?xml version="1.0" encoding="UTF-8" standalone="no"?>
<!--Created with ndjsontosvg(https:https://github.com/thompson318/ndjsontosvg) 
	from the simplified Google quickdraw data set. key_id = 5637176060542976-->
<svg width="256" height="256"
	xmlns="http://www.w3.org/2000/svg"
	xmlns:ndjsontosvg="https://github.com/thompson318/ndjsontosvg"
	xmlns:quickdraw="https://quickdraw.withgoogle.com/data"
	xmlns:scikit-surgery="https://doi.org/10.1007/s11548-020-02180-5">

	<rect width="100%" height="100%" fill="white" />
	<path d = "M 75.00 10.00 L 73.00 77.00 L 79.00 122.00" stroke="black" fill="transparent"/>
	<path d = "M 77.00 0.00 L 97.00 6.00 L 134.00 10.00 L 160.00 18.00 L 184.00 73.00 L 186.00 87.00 L 183.00 95.00 L 133.00 115.00 L 86.00 126.00" stroke="black" fill="transparent"/>
	<path d = "M 79.00 129.00 L 47.00 130.00 L 34.00 134.00 L 9.00 148.00 L 1.00 166.00 L 0.00 180.00 L 13.00 206.00 L 28.00 213.00 L 45.00 213.00 L 114.00 199.00 L 135.00 190.00 L 169.00 159.00 L 182.00 141.00 L 185.00 126.00 L 184.00 110.00 L 180.00 106.00 L 146.00 99.00" stroke="black" fill="transparent"/>
	<path d = "M 57.00 156.00 L 51.00 162.00 L 50.00 170.00 L 65.00 184.00 L 79.00 185.00 L 97.00 174.00 L 97.00 161.00 L 89.00 151.00 L 60.00 148.00" stroke="black" fill="transparent"/>
	<path d = "M 42.00 212.00 L 48.00 236.00 L 42.00 255.00 L 26.00 248.00 L 12.00 249.00" stroke="black" fill="transparent"/>
</svg>