<?xml version="1.0" encoding="UTF-8" standalone="no"?>
<!--Created with ndjsontosvg(https:https://github.com/thompson318/ndjsontosvg) 
	from the simplified Google quickdraw data set. key_id = 4976801799471104-->
<svg width="256" height="256"
	xmlns="http://www.w3.org/2000/svg"
	xmlns:ndjsontosvg="https://github.com/thompson318/ndjsontosvg"
	xmlns:quickdraw="https://quickdraw.withgoogle.com/data"
	xmlns:scikit-surgery="https://doi.org/10.1007/s11548-020-02180-5">

	<rect width="100%" height="100%" fill="white" />
	<path d = "M 211.00 0.00 L 166.00 6.00 L 161.00 17.00 L 164.00 80.00 L 160.00 127.00 L 153.00 133.00 L 126.00 127.00 L 28.00 127.00 L 7.00 134.00 L 1.00 140.00 L 1.00 172.00 L 7.00 179.00 L 16.00 182.00 L 90.00 182.00 L 148.00 164.00 L 154.00 159.00 L 160.00 137.00" stroke="black" fill="transparent"/>
	<path d = "M 213.00 6.00 L 210.00 168.00 L 207.00 187.00 L 206.00 233.00 L 178.00 249.00 L 136.00 255.00 L 119.00 255.00 L 84.00 242.00 L 22.00 239.00 L 17.00 232.00 L 15.00 182.00" stroke="black" fill="transparent"/>
</svg>