<?xml version="1.0" encoding="UTF-8" standalone="no"?>
<!--Created with ndjsontosvg(https:https://github.com/thompson318/ndjsontosvg) 
	from the simplified Google quickdraw data set. key_id = 5825126677348352-->
<svg width="256" height="256"
	xmlns="http://www.w3.org/2000/svg"
	xmlns:ndjsontosvg="https://github.com/thompson318/ndjsontosvg"
	xmlns:quickdraw="https://quickdraw.withgoogle.com/data"
	xmlns:scikit-surgery="https://doi.org/10.1007/s11548-020-02180-5">

	<rect width="100%" height="100%" fill="white" />
	<path d = "M 80.00 94.00 L 49.00 105.00 L 25.00 119.00 L 10.00 144.00 L 10.00 162.00 L 20.00 170.00 L 46.00 175.00 L 77.00 173.00 L 110.00 150.00 L 125.00 133.00 L 130.00 116.00 L 117.00 107.00 L 77.00 93.00 L 71.00 96.00 L 73.00 102.00" stroke="black" fill="transparent"/>
	<path d = "M 7.00 166.00 L 6.00 170.00 L 15.00 193.00 L 15.00 209.00 L 1.00 252.00 L 0.00 255.00 L 5.00 253.00" stroke="black" fill="transparent"/>
	<path d = "M 103.00 158.00 L 91.00 211.00 L 95.00 223.00 L 111.00 243.00 L 119.00 248.00 L 122.00 245.00" stroke="black" fill="transparent"/>
	<path d = "M 52.00 102.00 L 46.00 62.00 L 46.00 46.00 L 51.00 29.00 L 69.00 6.00 L 99.00 0.00 L 127.00 21.00 L 141.00 61.00 L 141.00 82.00 L 133.00 95.00 L 125.00 116.00" stroke="black" fill="transparent"/>
</svg>