<?xml version="1.0" encoding="UTF-8" standalone="no"?>
<!--Created with ndjsontosvg(https:https://github.com/thompson318/ndjsontosvg) 
	from the simplified Google quickdraw data set. key_id = 4594871484547072-->
<svg width="256" height="256"
	xmlns="http://www.w3.org/2000/svg"
	xmlns:ndjsontosvg="https://github.com/thompson318/ndjsontosvg"
	xmlns:quickdraw="https://quickdraw.withgoogle.com/data"
	xmlns:scikit-surgery="https://doi.org/10.1007/s11548-020-02180-5">

	<rect width="100%" height="100%" fill="white" />
	<path d = "M 34.00 255.00 L 41.00 227.00 L 41.00 210.00 L 24.00 187.00 L 5.00 152.00 L 0.00 141.00 L 0.00 132.00 L 8.00 130.00 L 82.00 130.00 L 128.00 121.00" stroke="black" fill="transparent"/>
	<path d = "M 39.00 251.00 L 136.00 248.00 L 135.00 241.00 L 119.00 215.00 L 120.00 192.00 L 134.00 147.00 L 133.00 128.00 L 122.00 108.00" stroke="black" fill="transparent"/>
	<path d = "M 123.00 119.00 L 119.00 91.00 L 121.00 15.00 L 124.00 6.00 L 130.00 0.00 L 143.00 3.00 L 155.00 49.00 L 165.00 56.00" stroke="black" fill="transparent"/>
	<path d = "M 150.00 47.00 L 169.00 56.00 L 176.00 78.00 L 176.00 97.00 L 148.00 142.00 L 131.00 142.00" stroke="black" fill="transparent"/>
	<path d = "M 5.00 126.00 L 1.00 125.00 L 2.00 113.00 L 17.00 106.00 L 118.00 107.00" stroke="black" fill="transparent"/>
</svg>