<?xml version="1.0" encoding="UTF-8" standalone="no"?>
<!--Created with ndjsontosvg(https:https://github.com/thompson318/ndjsontosvg) 
	from the simplified Google quickdraw data set. key_id = 4928131079077888-->
<svg width="256" height="256"
	xmlns="http://www.w3.org/2000/svg"
	xmlns:ndjsontosvg="https://github.com/thompson318/ndjsontosvg"
	xmlns:quickdraw="https://quickdraw.withgoogle.com/data"
	xmlns:scikit-surgery="https://doi.org/10.1007/s11548-020-02180-5">

	<rect width="100%" height="100%" fill="white" />
	<path d = "M 7.00 136.00 L 10.00 162.00 L 26.00 176.00 L 29.00 186.00 L 29.00 194.00 L 14.00 229.00 L 16.00 247.00 L 49.00 255.00 L 74.00 246.00 L 85.00 246.00 L 95.00 237.00 L 95.00 220.00 L 84.00 220.00 L 78.00 216.00 L 77.00 199.00 L 89.00 168.00 L 114.00 153.00 L 119.00 147.00 L 121.00 121.00 L 114.00 105.00 L 57.00 97.00 L 40.00 98.00 L 25.00 104.00 L 7.00 117.00 L 0.00 127.00" stroke="black" fill="transparent"/>
	<path d = "M 20.00 109.00 L 15.00 69.00 L 16.00 39.00 L 31.00 17.00 L 55.00 1.00 L 75.00 1.00 L 87.00 4.00 L 93.00 10.00 L 99.00 71.00 L 94.00 85.00 L 88.00 90.00" stroke="black" fill="transparent"/>
	<path d = "M 7.00 135.00 L 31.00 137.00 L 61.00 134.00 L 102.00 119.00 L 108.00 102.00" stroke="black" fill="transparent"/>
	<path d = "M 1.00 141.00 L 6.00 141.00" stroke="black" fill="transparent"/>
	<path d = "M 10.00 131.00 L 23.00 114.00 L 44.00 102.00 L 63.00 98.00 L 96.00 98.00 L 101.00 102.00 L 97.00 115.00 L 81.00 125.00 L 15.00 140.00" stroke="black" fill="transparent"/>
</svg>