<?xml version="1.0" encoding="UTF-8" standalone="no"?>
<!--Created with ndjsontosvg(https:https://github.com/thompson318/ndjsontosvg) 
	from the simplified Google quickdraw data set. key_id = 4931405794508800-->
<svg width="256" height="256"
	xmlns="http://www.w3.org/2000/svg"
	xmlns:ndjsontosvg="https://github.com/thompson318/ndjsontosvg"
	xmlns:quickdraw="https://quickdraw.withgoogle.com/data"
	xmlns:scikit-surgery="https://doi.org/10.1007/s11548-020-02180-5">

	<rect width="100%" height="100%" fill="white" />
	<path d = "M 10.00 154.00 L 11.00 136.00 L 3.00 97.00 L 3.00 66.00 L 13.00 19.00 L 21.00 10.00 L 48.00 1.00 L 78.00 0.00 L 91.00 9.00 L 102.00 23.00 L 114.00 53.00 L 126.00 151.00 L 120.00 153.00 L 91.00 149.00 L 53.00 149.00 L 8.00 152.00" stroke="black" fill="transparent"/>
	<path d = "M 15.00 154.00 L 0.00 183.00 L 1.00 209.00 L 11.00 230.00 L 22.00 244.00 L 41.00 255.00 L 82.00 254.00 L 107.00 244.00 L 119.00 235.00 L 128.00 222.00 L 136.00 200.00 L 138.00 175.00 L 135.00 164.00 L 127.00 152.00 L 115.00 145.00 L 108.00 144.00" stroke="black" fill="transparent"/>
	<path d = "M 69.00 175.00 L 56.00 171.00 L 45.00 179.00 L 40.00 188.00 L 37.00 215.00 L 46.00 224.00 L 54.00 227.00 L 87.00 226.00 L 101.00 217.00 L 103.00 200.00 L 96.00 190.00 L 81.00 178.00 L 55.00 169.00 L 46.00 170.00" stroke="black" fill="transparent"/>
</svg>