<?xml version="1.0" encoding="UTF-8" standalone="no"?>
<!--Created with ndjsontosvg(https:https://github.com/thompson318/ndjsontosvg) 
	from the simplified Google quickdraw data set. key_id = 5432090059341824-->
<svg width="256" height="256"
	xmlns="http://www.w3.org/2000/svg"
	xmlns:ndjsontosvg="https://github.com/thompson318/ndjsontosvg"
	xmlns:quickdraw="https://quickdraw.withgoogle.com/data"
	xmlns:scikit-surgery="https://doi.org/10.1007/s11548-020-02180-5">

	<rect width="100%" height="100%" fill="white" />
	<path d = "M 19.00 5.00 L 1.00 29.00 L 1.00 62.00 L 6.00 67.00 L 35.00 69.00 L 50.00 56.00 L 54.00 46.00 L 54.00 33.00 L 49.00 21.00 L 31.00 1.00 L 27.00 0.00 L 24.00 12.00" stroke="black" fill="transparent"/>
	<path d = "M 36.00 1.00 L 48.00 1.00 L 72.00 14.00 L 93.00 36.00 L 105.00 71.00 L 116.00 141.00 L 117.00 180.00 L 114.00 193.00 L 87.00 228.00 L 71.00 241.00 L 48.00 253.00 L 36.00 254.00 L 21.00 225.00 L 20.00 199.00 L 31.00 184.00 L 39.00 181.00 L 71.00 230.00 L 72.00 234.00 L 57.00 246.00" stroke="black" fill="transparent"/>
	<path d = "M 38.00 182.00 L 55.00 170.00 L 69.00 154.00" stroke="black" fill="transparent"/>
</svg>