<?xml version="1.0" encoding="UTF-8" standalone="no"?>
<!--Created with ndjsontosvg(https:https://github.com/thompson318/ndjsontosvg) 
	from the simplified Google quickdraw data set. key_id = 5497119806849024-->
<svg width="256" height="256"
	xmlns="http://www.w3.org/2000/svg"
	xmlns:ndjsontosvg="https://github.com/thompson318/ndjsontosvg"
	xmlns:quickdraw="https://quickdraw.withgoogle.com/data"
	xmlns:scikit-surgery="https://doi.org/10.1007/s11548-020-02180-5">

	<rect width="100%" height="100%" fill="white" />
	<path d = "M 8.00 197.00 L 2.00 144.00 L 2.00 55.00 L 8.00 26.00 L 19.00 10.00 L 55.00 0.00 L 93.00 0.00 L 115.00 5.00 L 151.00 18.00 L 161.00 24.00 L 171.00 41.00 L 185.00 85.00 L 185.00 201.00 L 129.00 246.00 L 101.00 254.00 L 48.00 255.00 L 10.00 245.00 L 3.00 236.00 L 0.00 225.00 L 0.00 206.00 L 5.00 195.00 L 6.00 182.00" stroke="black" fill="transparent"/>
	<path d = "M 35.00 102.00 L 145.00 103.00 L 149.00 100.00 L 154.00 78.00 L 153.00 53.00 L 145.00 40.00 L 92.00 35.00 L 63.00 36.00 L 53.00 38.00 L 44.00 48.00 L 39.00 62.00 L 40.00 104.00" stroke="black" fill="transparent"/>
</svg>