<?xml version="1.0" encoding="UTF-8" standalone="no"?>
<!--Created with ndjsontosvg(https:https://github.com/thompson318/ndjsontosvg) 
	from the simplified Google quickdraw data set. key_id = 5619062887415808-->
<svg width="256" height="256"
	xmlns="http://www.w3.org/2000/svg"
	xmlns:ndjsontosvg="https://github.com/thompson318/ndjsontosvg"
	xmlns:quickdraw="https://quickdraw.withgoogle.com/data"
	xmlns:scikit-surgery="https://doi.org/10.1007/s11548-020-02180-5">

	<rect width="100%" height="100%" fill="white" />
	<path d = "M 54.00 35.00 L 94.00 24.00 L 137.00 23.00 L 163.00 35.00 L 176.00 49.00 L 180.00 61.00 L 180.00 79.00 L 176.00 102.00 L 135.00 229.00 L 123.00 244.00 L 114.00 241.00" stroke="black" fill="transparent"/>
	<path d = "M 41.00 59.00 L 21.00 196.00 L 20.00 218.00 L 26.00 240.00 L 35.00 248.00 L 48.00 253.00 L 72.00 255.00 L 107.00 251.00 L 145.00 241.00 L 156.00 233.00 L 166.00 219.00" stroke="black" fill="transparent"/>
	<path d = "M 41.00 135.00 L 133.00 139.00" stroke="black" fill="transparent"/>
	<path d = "M 58.00 143.00 L 49.00 249.00" stroke="black" fill="transparent"/>
	<path d = "M 113.00 146.00 L 97.00 224.00 L 87.00 246.00" stroke="black" fill="transparent"/>
	<path d = "M 26.00 179.00 L 152.00 184.00" stroke="black" fill="transparent"/>
	<path d = "M 32.00 214.00 L 63.00 209.00 L 147.00 216.00" stroke="black" fill="transparent"/>
	<path d = "M 46.00 155.00 L 45.00 171.00" stroke="black" fill="transparent"/>
	<path d = "M 75.00 151.00 L 87.00 152.00 L 88.00 165.00 L 102.00 164.00" stroke="black" fill="transparent"/>
	<path d = "M 134.00 145.00 L 138.00 146.00 L 138.00 153.00 L 128.00 165.00 L 136.00 171.00 L 126.00 176.00" stroke="black" fill="transparent"/>
	<path d = "M 31.00 183.00 L 35.00 196.00 L 45.00 198.00" stroke="black" fill="transparent"/>
	<path d = "M 45.00 188.00 L 40.00 204.00" stroke="black" fill="transparent"/>
	<path d = "M 80.00 190.00 L 85.00 190.00 L 90.00 208.00 L 86.00 211.00 L 79.00 207.00" stroke="black" fill="transparent"/>
	<path d = "M 80.00 192.00 L 109.00 185.00" stroke="black" fill="transparent"/>
	<path d = "M 122.00 188.00 L 110.00 198.00 L 104.00 209.00 L 109.00 214.00 L 120.00 210.00 L 122.00 205.00 L 113.00 202.00" stroke="black" fill="transparent"/>
	<path d = "M 13.00 241.00 L 43.00 234.00 L 33.00 251.00" stroke="black" fill="transparent"/>
	<path d = "M 30.00 243.00 L 53.00 235.00" stroke="black" fill="transparent"/>
	<path d = "M 70.00 231.00 L 68.00 219.00 L 67.00 227.00 L 72.00 249.00 L 68.00 251.00 L 65.00 239.00 L 74.00 228.00" stroke="black" fill="transparent"/>
	<path d = "M 110.00 235.00 L 110.00 222.00 L 105.00 221.00 L 98.00 232.00 L 112.00 237.00 L 116.00 243.00 L 115.00 251.00" stroke="black" fill="transparent"/>
	<path d = "M 64.00 65.00 L 61.00 121.00" stroke="black" fill="transparent"/>
	<path d = "M 68.00 85.00 L 71.00 60.00 L 84.00 53.00 L 124.00 48.00 L 148.00 53.00 L 163.00 62.00 L 171.00 77.00 L 168.00 90.00 L 162.00 98.00 L 144.00 111.00" stroke="black" fill="transparent"/>
	<path d = "M 65.00 118.00 L 131.00 121.00" stroke="black" fill="transparent"/>
	<path d = "M 22.00 16.00 L 9.00 92.00 L 0.00 184.00 L 2.00 218.00 L 11.00 234.00 L 35.00 246.00 L 57.00 249.00 L 96.00 246.00 L 175.00 251.00 L 196.00 249.00 L 224.00 237.00 L 228.00 219.00 L 207.00 71.00 L 198.00 37.00 L 190.00 19.00 L 169.00 7.00 L 112.00 0.00 L 70.00 2.00 L 10.00 18.00" stroke="black" fill="transparent"/>
</svg>