<?xml version="1.0" encoding="UTF-8" standalone="no"?>
<!--Created with ndjsontosvg(https:https://github.com/thompson318/ndjsontosvg) 
	from the simplified Google quickdraw data set. key_id = 4794252267618304-->
<svg width="256" height="256"
	xmlns="http://www.w3.org/2000/svg"
	xmlns:ndjsontosvg="https://github.com/thompson318/ndjsontosvg"
	xmlns:quickdraw="https://quickdraw.withgoogle.com/data"
	xmlns:scikit-surgery="https://doi.org/10.1007/s11548-020-02180-5">

	<rect width="100%" height="100%" fill="white" />
	<path d = "M 72.00 9.00 L 72.00 47.00 L 75.00 60.00 L 88.00 76.00 L 104.00 77.00 L 116.00 55.00 L 116.00 21.00 L 104.00 11.00 L 78.00 4.00 L 61.00 19.00" stroke="black" fill="transparent"/>
	<path d = "M 74.00 0.00 L 45.00 21.00 L 31.00 38.00 L 20.00 55.00 L 7.00 88.00 L 0.00 123.00 L 2.00 203.00 L 5.00 222.00 L 14.00 235.00 L 26.00 242.00 L 117.00 255.00 L 122.00 252.00 L 135.00 222.00 L 136.00 196.00 L 118.00 183.00 L 79.00 178.00 L 39.00 178.00 L 26.00 181.00 L 18.00 189.00 L 3.00 232.00" stroke="black" fill="transparent"/>
</svg>