<?xml version="1.0" encoding="UTF-8" standalone="no"?>
<!--Created with ndjsontosvg(https:https://github.com/thompson318/ndjsontosvg) 
	from the simplified Google quickdraw data set. key_id = 5125190704955392-->
<svg width="256" height="256"
	xmlns="http://www.w3.org/2000/svg"
	xmlns:ndjsontosvg="https://github.com/thompson318/ndjsontosvg"
	xmlns:quickdraw="https://quickdraw.withgoogle.com/data"
	xmlns:scikit-surgery="https://doi.org/10.1007/s11548-020-02180-5">

	<rect width="100%" height="100%" fill="white" />
	<path d = "M 47.00 4.00 L 32.00 6.00 L 19.00 12.00 L 8.00 21.00 L 1.00 36.00 L 2.00 48.00 L 8.00 55.00 L 21.00 63.00 L 36.00 62.00" stroke="black" fill="transparent"/>
	<path d = "M 53.00 0.00 L 53.00 4.00 L 75.00 16.00 L 86.00 27.00 L 99.00 49.00 L 112.00 110.00 L 110.00 173.00 L 97.00 200.00 L 62.00 225.00 L 50.00 226.00 L 29.00 209.00 L 24.00 192.00 L 27.00 177.00 L 49.00 157.00 L 62.00 156.00 L 71.00 165.00 L 77.00 158.00 L 81.00 144.00 L 63.00 75.00 L 53.00 62.00 L 40.00 61.00" stroke="black" fill="transparent"/>
	<path d = "M 77.00 219.00 L 75.00 215.00 L 79.00 212.00 L 100.00 206.00 L 102.00 213.00 L 96.00 224.00 L 117.00 216.00 L 130.00 221.00 L 133.00 229.00 L 131.00 237.00 L 121.00 249.00 L 126.00 241.00 L 140.00 230.00 L 146.00 229.00 L 152.00 235.00 L 156.00 255.00" stroke="black" fill="transparent"/>
</svg>