<?xml version="1.0" encoding="UTF-8" standalone="no"?>
<!--Created with ndjsontosvg(https:https://github.com/thompson318/ndjsontosvg) 
	from the simplified Google quickdraw data set. key_id = 4507678745296896-->
<svg width="256" height="256"
	xmlns="http://www.w3.org/2000/svg"
	xmlns:ndjsontosvg="https://github.com/thompson318/ndjsontosvg"
	xmlns:quickdraw="https://quickdraw.withgoogle.com/data"
	xmlns:scikit-surgery="https://doi.org/10.1007/s11548-020-02180-5">

	<rect width="100%" height="100%" fill="white" />
	<path d = "M 76.00 237.00 L 43.00 228.00 L 34.00 222.00 L 29.00 212.00 L 28.00 192.00 L 56.00 178.00 L 87.00 179.00 L 88.00 171.00 L 74.00 149.00 L 73.00 129.00 L 78.00 103.00 L 108.00 72.00 L 123.00 65.00 L 139.00 66.00" stroke="black" fill="transparent"/>
	<path d = "M 61.00 235.00 L 121.00 224.00 L 177.00 220.00 L 210.00 211.00 L 211.00 200.00 L 200.00 190.00 L 193.00 186.00 L 159.00 181.00 L 162.00 174.00 L 181.00 152.00 L 186.00 132.00 L 186.00 115.00 L 182.00 104.00 L 173.00 97.00 L 133.00 74.00" stroke="black" fill="transparent"/>
	<path d = "M 100.00 70.00 L 111.00 66.00 L 173.00 65.00 L 152.00 68.00 L 124.00 68.00 L 90.00 68.00 L 90.00 63.00" stroke="black" fill="transparent"/>
	<path d = "M 215.00 100.00 L 210.00 96.00" stroke="black" fill="transparent"/>
	<path d = "M 220.00 80.00 L 212.00 88.00 L 209.00 98.00 L 209.00 107.00 L 217.00 115.00 L 234.00 119.00 L 240.00 117.00 L 250.00 109.00 L 255.00 96.00 L 254.00 74.00 L 244.00 47.00 L 223.00 23.00 L 202.00 9.00 L 187.00 3.00 L 167.00 0.00 L 132.00 0.00 L 95.00 8.00 L 35.00 38.00 L 0.00 84.00 L 7.00 96.00 L 17.00 102.00 L 26.00 105.00 L 42.00 102.00 L 54.00 95.00 L 61.00 68.00 L 69.00 56.00 L 82.00 49.00 L 105.00 43.00 L 197.00 37.00 L 206.00 40.00 L 222.00 57.00 L 226.00 67.00 L 219.00 84.00 L 221.00 87.00" stroke="black" fill="transparent"/>
</svg>